# xmcd
# 
# Track frame offsets:
#     182
#     19082
#     35557
#     57645
#     74005
#     91327
#     112280
#     122847
#     141040
#     158885
#     171790
# 
# Disc length: 2469
# 
# Revision: 2
# Processed by: cddbd v1.5.2PL0 Copyright (c) Steve Scherf et al.
# Submitted via: fre:ac v1.0.31
# 
DISCID=a309a30b
DTITLE=U2 - October
DYEAR=1981
DGENRE=Rock
TTITLE0=Gloria
TTITLE1=I Fall Down
TTITLE2=I Threw a Brick Through a Window
TTITLE3=Rejoice
TTITLE4=Fire
TTITLE5=Tomorrow
TTITLE6=October
TTITLE7=With a Shout
TTITLE8=Stranger in a Strange Land
TTITLE9=Scarlet
TTITLE10=Is That All ?
EXTD=YEAR: 1981
EXTT0=
EXTT1=
EXTT2=
EXTT3=
EXTT4=
EXTT5=
EXTT6=
EXTT7=
EXTT8=
EXTT9=
EXTT10=
PLAYORDER=
